#!OML:ASF E:/inclinewalkrobotboard/Project1/Captureday1/Session1/subject1.ASF
:FULLY-SPECIFIED
:DEGREES
76
root 0 0 0 -2.506579251709888 -0.5004601245316866 -1.9091386994082526
lowerback 10.469806637011553 -0.053264412310860654 0.3604017147353078
upperback 0.36639470088553727 0.0875546002690002 1.888277445120862
thorax -5.388157811038748 0.06482762571343409 1.7622898381009346
lowerneck -17.818506659525184 -2.7896348381080176 -1.6298659024651068
upperneck 20.091178579108796 -3.412327343133947 -0.08789645783222788
head 9.279030592111663 -1.6832784267330907 -0.21980731513194973
rclavicle -4.654733508970426E-16 -3.20130720609137E-16
rhumerus -28.803526181620658 -17.755719702426497 -77.98821749769202
rradius 26.938182723340503
rwrist 4.453060187487706
rhand -17.726039550688252 22.27827421491418
rfingers 7.1250200000000214
rthumb 8.526681971481121 -7.534837663998037
lclavicle -7.303907141878836E-16 -2.0809344034947294E-16
lhumerus -29.20736306983523 -2.741110743512394 82.21805497841218
lradius 34.685617328242806
lwrist 5.9067718562458245
lhand -24.917206266355002 24.303321493319135
lfingers 7.123286593158011
lthumb 1.5683175849836264 53.692809488466324
rfemur -3.3252130995006475 7.342026036254264 31.06367009163273
rtibia 28.07735293429517
rfoot -13.589993664990587 -5.821803117990943
rtoes 2.9289849204315805
lfemur -20.239443775444105 0.855062040813404 -12.4728743778922
ltibia 55.93167656764956
lfoot 4.714811471383122 -8.840938760961476
ltoes -6.038681078839579
77
root 0 0 0 -2.368537595211298 -1.5600072978187622 -3.4657736280338995
lowerback 10.496013217279145 0.616239546608931 2.081594150901365
upperback 0.3639948837953515 1.1720861469829034 1.8897145898864518
thorax -5.396973999763105 0.5637471230817733 0.6516338598189987
lowerneck -17.77016906129466 -2.91273984105164 -1.5141498590910967
upperneck 19.985453771780566 -3.615974347829742 -0.03695376760632474
head 9.247374964031852 -1.762895612189206 -0.2487514695119608
rclavicle -4.801164895423941E-16 -3.2146224950754864E-16
rhumerus -28.654936397138155 -17.59907681795005 -77.970012138693
rradius 27.084751770562974
rwrist 4.479499005382657
rhand -17.74679406257295 22.16854671204763
rfingers 7.12502000000002
rthumb 8.506026488180623 -7.642415099885753
lclavicle -7.291866975136644E-16 -2.1243082820347867E-16
lhumerus -29.296259936653055 -2.6343596032358327 82.22278947442574
lradius 34.48541764632697
lwrist 5.8917827460050765
lhand -24.97654486710886 24.271637152631364
lfingers 7.123359026142228
lthumb 1.5132918217374076 53.67734540466907
rfemur -2.6941714004641746 7.58476104952929 31.363903197975834
rtibia 26.8727708195812
rfoot -14.202515195166315 -5.870192371743273
rtoes 2.6692984736819634
lfemur -21.321826357948822 0.6262820430327225 -12.07080491119054
ltibia 54.458411707440334
lfoot 3.8594198754388884 -7.609927986232105
ltoes -5.64780058811751
78
root 0 0 0 -2.238162709122271 -3.1047046965360146 -4.95212637013808
lowerback 10.501377456735012 1.353068339127257 3.738391934422104
upperback 0.4022248725124493 2.33305937791687 1.8207331149165524
thorax -5.348246029962427 1.0946736108207749 -0.5099973119586005
lowerneck -17.50594560309934 -3.0751323627020213 -1.494795333055337
upperneck 19.68497519376813 -3.893726661738549 0.21053988791075984
head 9.114486100375165 -1.8776287368056905 -0.19347244251864204
rclavicle -4.984773403376493E-16 -3.10885946842413E-16
rhumerus -28.495703777270858 -17.442074658593512 -77.94402069899812
rradius 27.238393154746205
rwrist 4.509159877962848
rhand -17.772199524850475 22.052944415793274
rfingers 7.125020000000018
rthumb 8.482360964764153 -7.755670241738706
lclavicle -7.300248153253326E-16 -2.0921409180868466E-16
lhumerus -29.483500075243665 -2.4251080185319083 82.23494806536912
lradius 34.08787082467919
lwrist 5.853997671664096
lhand -25.093961193488457 24.20105200407872
lfingers 7.123448594729768
lthumb 1.4029803655633302 53.643224174529095
rfemur -2.486149752236102 7.633595148011098 31.46428463103739
rtibia 26.64597020978433
rfoot -14.332896619039325 -5.859318734176586
rtoes 2.6440537482290942
lfemur -21.45119283434211 0.16360231522903934 -12.27872398804565
ltibia 51.00469607071976
lfoot 1.991738764992025 -5.843043561133552
ltoes -5.071228498823066
79
root 0 0 0 -2.162375902477869 -4.3225103276032435 -5.854606477423128
lowerback 10.4927496248886 1.8508371099450853 4.745386138957116
upperback 0.44887867953498795 3.1028845013720865 1.739226921026912
thorax -5.2860913848801925 1.4452095211665987 -1.2688728562397305
lowerneck -17.218365364681787 -3.1954198090585644 -1.5359515675789757
upperneck 19.390950590536285 -4.1049561290370375 0.470188173242188
head 8.97699885691188 -1.9666746583704704 -0.1133157606936872
rclavicle -5.114686985460704E-16 -2.9641651100148616E-16
rhumerus -28.449461136181352 -17.401747632992027 -77.93735356413609
rradius 27.274460111372793
rwrist 4.516110306656257
rhand -17.780787386642828 22.02375366745917
rfingers 7.125020000000018
rthumb 8.475326086733627 -7.784254890688896
lclavicle -7.126451064083663E-16 -1.997161651383815E-16
lhumerus -29.737629114471538 -2.151185975759713 82.25524138200744
lradius 33.55626480366919
lwrist 5.799730651832256
lhand -25.25272061624397 24.103983848920738
lfingers 7.123559983846395
lthumb 1.2510981672332608 53.601358099103194
rfemur -2.3913962430362474 7.679821162272109 31.49419310130523
rtibia 26.406050231424107
rfoot -14.44822917876396 -5.874327476652191
rtoes 2.536014322661136
lfemur -21.089999631427105 -0.38675613209895343 -12.794360853043834
ltibia 46.79920727351475
lfoot -0.1585856889453563 -4.017375134206079
ltoes -4.421804324911209
